<svg xmlns="http://www.w3.org/2000/svg" viewBox="0 0 720 340" width="720" height="340" font-family="system-ui, -apple-system, Segoe UI, sans-serif" font-size="12"><rect width="100%" height="100%" fill="#fff"/><text x="64" y="24" font-size="15" font-weight="600" fill="#222">S0 p99 latency by arrival rate (log scale)</text><line x1="64" y1="276.0" x2="700" y2="276.0" stroke="#ddd"/><text x="58" y="280.0" text-anchor="end" fill="#555">1.0</text><line x1="64" y1="198.7" x2="700" y2="198.7" stroke="#ddd"/><text x="58" y="202.7" text-anchor="end" fill="#555">10</text><line x1="64" y1="121.3" x2="700" y2="121.3" stroke="#ddd"/><text x="58" y="125.3" text-anchor="end" fill="#555">100</text><line x1="64" y1="44.0" x2="700" y2="44.0" stroke="#ddd"/><text x="58" y="48.0" text-anchor="end" fill="#555">1000</text><text x="14" y="160" transform="rotate(-90 14 160)" text-anchor="middle" fill="#555">p99, ms</text><rect x="127.6" y="126.7" width="156.0" height="149.3" fill="#4477AA"><title>V1a Temporal baseline 30 TPS: 85</title></rect><text x="205.6" y="123.7" text-anchor="middle" font-size="10" fill="#222">85</text><rect x="297.2" y="54.5" width="156.0" height="221.5" fill="#EE7733"><title>V1b Temporal optimised 30 TPS: 731</title></rect><text x="375.2" y="51.5" text-anchor="middle" font-size="10" fill="#222">731</text><rect x="466.8" y="182.3" width="156.0" height="93.7" fill="#228833"><title>V2 DBOS 30 TPS: 16</title></rect><text x="544.8" y="179.3" text-anchor="middle" font-size="10" fill="#222">16</text><text x="382.0" y="292" text-anchor="middle" fill="#555">30 TPS</text><line x1="64" y1="276" x2="700" y2="276" stroke="#555"/><rect x="64" y="318" width="12" height="12" fill="#4477AA"/><text x="81" y="328" fill="#222">V1a Temporal baseline</text><rect x="241" y="318" width="12" height="12" fill="#EE7733"/><text x="258" y="328" fill="#222">V1b Temporal optimised</text><rect x="425" y="318" width="12" height="12" fill="#228833"/><text x="442" y="328" fill="#222">V2 DBOS</text></svg>