<svg xmlns="http://www.w3.org/2000/svg" viewBox="0 0 720 340" width="720" height="340" font-family="system-ui, -apple-system, Segoe UI, sans-serif" font-size="12"><rect width="100%" height="100%" fill="#fff"/><text x="64" y="24" font-size="15" font-weight="600" fill="#222">S2 p99 per step (median run)</text><line x1="64" y1="276.0" x2="700" y2="276.0" stroke="#ddd"/><text x="58" y="280.0" text-anchor="end" fill="#555">0.00</text><text x="64.0" y="292" text-anchor="middle" fill="#555">0.00</text><line x1="64" y1="218.0" x2="700" y2="218.0" stroke="#ddd"/><text x="58" y="222.0" text-anchor="end" fill="#555">5000</text><text x="223.0" y="292" text-anchor="middle" fill="#555">62</text><line x1="64" y1="160.0" x2="700" y2="160.0" stroke="#ddd"/><text x="58" y="164.0" text-anchor="end" fill="#555">10000</text><text x="382.0" y="292" text-anchor="middle" fill="#555">125</text><line x1="64" y1="102.0" x2="700" y2="102.0" stroke="#ddd"/><text x="58" y="106.0" text-anchor="end" fill="#555">15000</text><text x="541.0" y="292" text-anchor="middle" fill="#555">188</text><line x1="64" y1="44.0" x2="700" y2="44.0" stroke="#ddd"/><text x="58" y="48.0" text-anchor="end" fill="#555">20000</text><text x="700.0" y="292" text-anchor="middle" fill="#555">250</text><text x="382" y="310" text-anchor="middle" fill="#555">arrival rate, TPS</text><text x="14" y="160" transform="rotate(-90 14 160)" text-anchor="middle" fill="#555">p99, ms</text><line x1="64" y1="218.0" x2="700" y2="218.0" stroke="#cc3311" stroke-dasharray="5 4"/><text x="700" y="214.0" text-anchor="end" fill="#cc3311">SLA 5 s</text><polyline fill="none" stroke="#4477AA" stroke-width="2" points="140.3,275.0 216.6,205.3 293.0,192.7"/><circle cx="140.3" cy="275.0" r="3" fill="#4477AA"><title>V1a Temporal baseline x=30 y=89</title></circle><circle cx="216.6" cy="205.3" r="3" fill="#4477AA"><title>V1a Temporal baseline x=60 y=6094</title></circle><circle cx="293.0" cy="192.7" r="3" fill="#4477AA"><title>V1a Temporal baseline x=90 y=7184</title></circle><polyline fill="none" stroke="#EE7733" stroke-width="2" points="140.3,275.5 216.6,275.4 293.0,275.4 369.3,274.9 445.6,262.0 521.9,160.0 598.2,114.0"/><circle cx="140.3" cy="275.5" r="3" fill="#EE7733"><title>V1b Temporal optimised x=30 y=47</title></circle><circle cx="216.6" cy="275.4" r="3" fill="#EE7733"><title>V1b Temporal optimised x=60 y=50</title></circle><circle cx="293.0" cy="275.4" r="3" fill="#EE7733"><title>V1b Temporal optimised x=90 y=51</title></circle><circle cx="369.3" cy="274.9" r="3" fill="#EE7733"><title>V1b Temporal optimised x=120 y=91</title></circle><circle cx="445.6" cy="262.0" r="3" fill="#EE7733"><title>V1b Temporal optimised x=150 y=1205</title></circle><circle cx="521.9" cy="160.0" r="3" fill="#EE7733"><title>V1b Temporal optimised x=180 y=10000</title></circle><circle cx="598.2" cy="114.0" r="3" fill="#EE7733"><title>V1b Temporal optimised x=210 y=13966</title></circle><polyline fill="none" stroke="#228833" stroke-width="2" points="140.3,275.5 216.6,275.6 293.0,203.5 369.3,131.5"/><circle cx="140.3" cy="275.5" r="3" fill="#228833"><title>V2 DBOS x=30 y=41</title></circle><circle cx="216.6" cy="275.6" r="3" fill="#228833"><title>V2 DBOS x=60 y=33</title></circle><circle cx="293.0" cy="203.5" r="3" fill="#228833"><title>V2 DBOS x=90 y=6246</title></circle><circle cx="369.3" cy="131.5" r="3" fill="#228833"><title>V2 DBOS x=120 y=12461</title></circle><line x1="64" y1="276" x2="700" y2="276" stroke="#555"/><line x1="64" y1="44" x2="64" y2="276" stroke="#555"/><rect x="64" y="318" width="12" height="12" fill="#4477AA"/><text x="81" y="328" fill="#222">V1a Temporal baseline</text><rect x="241" y="318" width="12" height="12" fill="#EE7733"/><text x="258" y="328" fill="#222">V1b Temporal optimised</text><rect x="425" y="318" width="12" height="12" fill="#228833"/><text x="442" y="328" fill="#222">V2 DBOS</text></svg>